<mxfile host="app.diagrams.net" modified="2024-03-18T07:10:41.463Z" agent="Mozilla/5.0 (Windows NT 10.0; Win64; x64) AppleWebKit/537.36 (KHTML, like Gecko) Chrome/122.0.0.0 Safari/537.36" etag="LUPHC5PvqX-SkZotJfLf" version="24.0.5" type="github">
  <diagram name="Page-1" id="e56a1550-8fbb-45ad-956c-1786394a9013">
    <mxGraphModel dx="1434" dy="746" grid="1" gridSize="10" guides="1" tooltips="1" connect="1" arrows="1" fold="1" page="1" pageScale="1" pageWidth="1100" pageHeight="850" background="none" math="0" shadow="0">
      <root>
        <mxCell id="0" />
        <mxCell id="1" parent="0" />
        <mxCell id="2e49270ec7c68f3f-80" value="currencies" style="swimlane;html=1;fontStyle=0;childLayout=stackLayout;horizontal=1;startSize=26;fillColor=#e0e0e0;horizontalStack=0;resizeParent=1;resizeLast=0;collapsible=1;marginBottom=0;swimlaneFillColor=#ffffff;align=center;rounded=0;shadow=0;comic=0;labelBackgroundColor=none;strokeWidth=1;fontFamily=Verdana;fontSize=14" parent="1" vertex="1">
          <mxGeometry x="80" y="440" width="160" height="56" as="geometry" />
        </mxCell>
        <mxCell id="2e49270ec7c68f3f-81" value="幣別名稱" style="shape=partialRectangle;top=0;left=0;right=0;bottom=1;html=1;align=left;verticalAlign=middle;fillColor=none;spacingLeft=34;spacingRight=4;whiteSpace=wrap;overflow=hidden;rotatable=0;points=[[0,0.5],[1,0.5]];portConstraint=eastwest;dropTarget=0;fontStyle=5;" parent="2e49270ec7c68f3f-80" vertex="1">
          <mxGeometry y="26" width="160" height="30" as="geometry" />
        </mxCell>
        <mxCell id="2e49270ec7c68f3f-82" value="PK" style="shape=partialRectangle;top=0;left=0;bottom=0;html=1;fillColor=none;align=left;verticalAlign=middle;spacingLeft=4;spacingRight=4;whiteSpace=wrap;overflow=hidden;rotatable=0;points=[];portConstraint=eastwest;part=1;" parent="2e49270ec7c68f3f-81" vertex="1" connectable="0">
          <mxGeometry width="30" height="30" as="geometry" />
        </mxCell>
        <mxCell id="Pq3xIhJE7gmnOF6xwbTR-1" value="units" style="swimlane;html=1;fontStyle=0;childLayout=stackLayout;horizontal=1;startSize=26;fillColor=#e0e0e0;horizontalStack=0;resizeParent=1;resizeLast=0;collapsible=1;marginBottom=0;swimlaneFillColor=#ffffff;align=center;rounded=0;shadow=0;comic=0;labelBackgroundColor=none;strokeWidth=1;fontFamily=Verdana;fontSize=14" vertex="1" parent="1">
          <mxGeometry x="80" y="320" width="160" height="56" as="geometry" />
        </mxCell>
        <mxCell id="Pq3xIhJE7gmnOF6xwbTR-2" value="單位名稱" style="shape=partialRectangle;top=0;left=0;right=0;bottom=1;html=1;align=left;verticalAlign=middle;fillColor=none;spacingLeft=34;spacingRight=4;whiteSpace=wrap;overflow=hidden;rotatable=0;points=[[0,0.5],[1,0.5]];portConstraint=eastwest;dropTarget=0;fontStyle=5;" vertex="1" parent="Pq3xIhJE7gmnOF6xwbTR-1">
          <mxGeometry y="26" width="160" height="30" as="geometry" />
        </mxCell>
        <mxCell id="Pq3xIhJE7gmnOF6xwbTR-3" value="PK" style="shape=partialRectangle;top=0;left=0;bottom=0;html=1;fillColor=none;align=left;verticalAlign=middle;spacingLeft=4;spacingRight=4;whiteSpace=wrap;overflow=hidden;rotatable=0;points=[];portConstraint=eastwest;part=1;" vertex="1" connectable="0" parent="Pq3xIhJE7gmnOF6xwbTR-2">
          <mxGeometry width="30" height="30" as="geometry" />
        </mxCell>
        <mxCell id="Pq3xIhJE7gmnOF6xwbTR-24" value="material_categories" style="swimlane;html=1;fontStyle=0;childLayout=stackLayout;horizontal=1;startSize=26;fillColor=#e0e0e0;horizontalStack=0;resizeParent=1;resizeLast=0;collapsible=1;marginBottom=0;swimlaneFillColor=#ffffff;align=center;rounded=0;shadow=0;comic=0;labelBackgroundColor=none;strokeWidth=1;fontFamily=Verdana;fontSize=14" vertex="1" parent="1">
          <mxGeometry x="560" y="40" width="160" height="56" as="geometry" />
        </mxCell>
        <mxCell id="Pq3xIhJE7gmnOF6xwbTR-25" value="物料類別" style="shape=partialRectangle;top=0;left=0;right=0;bottom=1;html=1;align=left;verticalAlign=middle;fillColor=none;spacingLeft=34;spacingRight=4;whiteSpace=wrap;overflow=hidden;rotatable=0;points=[[0,0.5],[1,0.5]];portConstraint=eastwest;dropTarget=0;fontStyle=5;" vertex="1" parent="Pq3xIhJE7gmnOF6xwbTR-24">
          <mxGeometry y="26" width="160" height="30" as="geometry" />
        </mxCell>
        <mxCell id="Pq3xIhJE7gmnOF6xwbTR-26" value="PK" style="shape=partialRectangle;top=0;left=0;bottom=0;html=1;fillColor=none;align=left;verticalAlign=middle;spacingLeft=4;spacingRight=4;whiteSpace=wrap;overflow=hidden;rotatable=0;points=[];portConstraint=eastwest;part=1;" vertex="1" connectable="0" parent="Pq3xIhJE7gmnOF6xwbTR-25">
          <mxGeometry width="30" height="30" as="geometry" />
        </mxCell>
        <mxCell id="Pq3xIhJE7gmnOF6xwbTR-35" value="ed_projects" style="swimlane;html=1;fontStyle=0;childLayout=stackLayout;horizontal=1;startSize=26;fillColor=#e0e0e0;horizontalStack=0;resizeParent=1;resizeLast=0;collapsible=1;marginBottom=0;swimlaneFillColor=#ffffff;align=center;rounded=0;shadow=0;comic=0;labelBackgroundColor=none;strokeWidth=1;fontFamily=Verdana;fontSize=14" vertex="1" parent="1">
          <mxGeometry x="840" y="120" width="160" height="196" as="geometry" />
        </mxCell>
        <mxCell id="Pq3xIhJE7gmnOF6xwbTR-36" value="默認遞增主鍵" style="shape=partialRectangle;top=0;left=0;right=0;bottom=1;html=1;align=left;verticalAlign=middle;fillColor=none;spacingLeft=34;spacingRight=4;whiteSpace=wrap;overflow=hidden;rotatable=0;points=[[0,0.5],[1,0.5]];portConstraint=eastwest;dropTarget=0;fontStyle=5;" vertex="1" parent="Pq3xIhJE7gmnOF6xwbTR-35">
          <mxGeometry y="26" width="160" height="30" as="geometry" />
        </mxCell>
        <mxCell id="Pq3xIhJE7gmnOF6xwbTR-37" value="PK" style="shape=partialRectangle;top=0;left=0;bottom=0;html=1;fillColor=none;align=left;verticalAlign=middle;spacingLeft=4;spacingRight=4;whiteSpace=wrap;overflow=hidden;rotatable=0;points=[];portConstraint=eastwest;part=1;" vertex="1" connectable="0" parent="Pq3xIhJE7gmnOF6xwbTR-36">
          <mxGeometry width="30" height="30" as="geometry" />
        </mxCell>
        <mxCell id="Pq3xIhJE7gmnOF6xwbTR-38" value="專案啟動年份" style="shape=partialRectangle;top=0;left=0;right=0;bottom=0;html=1;align=left;verticalAlign=top;fillColor=none;spacingLeft=34;spacingRight=4;whiteSpace=wrap;overflow=hidden;rotatable=0;points=[[0,0.5],[1,0.5]];portConstraint=eastwest;dropTarget=0;" vertex="1" parent="Pq3xIhJE7gmnOF6xwbTR-35">
          <mxGeometry y="56" width="160" height="26" as="geometry" />
        </mxCell>
        <mxCell id="Pq3xIhJE7gmnOF6xwbTR-39" value="" style="shape=partialRectangle;top=0;left=0;bottom=0;html=1;fillColor=none;align=left;verticalAlign=top;spacingLeft=4;spacingRight=4;whiteSpace=wrap;overflow=hidden;rotatable=0;points=[];portConstraint=eastwest;part=1;" vertex="1" connectable="0" parent="Pq3xIhJE7gmnOF6xwbTR-38">
          <mxGeometry width="30" height="26" as="geometry" />
        </mxCell>
        <mxCell id="Pq3xIhJE7gmnOF6xwbTR-40" value="專案名稱" style="shape=partialRectangle;top=0;left=0;right=0;bottom=0;html=1;align=left;verticalAlign=top;fillColor=none;spacingLeft=34;spacingRight=4;whiteSpace=wrap;overflow=hidden;rotatable=0;points=[[0,0.5],[1,0.5]];portConstraint=eastwest;dropTarget=0;" vertex="1" parent="Pq3xIhJE7gmnOF6xwbTR-35">
          <mxGeometry y="82" width="160" height="26" as="geometry" />
        </mxCell>
        <mxCell id="Pq3xIhJE7gmnOF6xwbTR-41" value="" style="shape=partialRectangle;top=0;left=0;bottom=0;html=1;fillColor=none;align=left;verticalAlign=top;spacingLeft=4;spacingRight=4;whiteSpace=wrap;overflow=hidden;rotatable=0;points=[];portConstraint=eastwest;part=1;" vertex="1" connectable="0" parent="Pq3xIhJE7gmnOF6xwbTR-40">
          <mxGeometry width="30" height="26" as="geometry" />
        </mxCell>
        <mxCell id="Pq3xIhJE7gmnOF6xwbTR-42" value="備註" style="shape=partialRectangle;top=0;left=0;right=0;bottom=0;html=1;align=left;verticalAlign=top;fillColor=none;spacingLeft=34;spacingRight=4;whiteSpace=wrap;overflow=hidden;rotatable=0;points=[[0,0.5],[1,0.5]];portConstraint=eastwest;dropTarget=0;" vertex="1" parent="Pq3xIhJE7gmnOF6xwbTR-35">
          <mxGeometry y="108" width="160" height="26" as="geometry" />
        </mxCell>
        <mxCell id="Pq3xIhJE7gmnOF6xwbTR-43" value="" style="shape=partialRectangle;top=0;left=0;bottom=0;html=1;fillColor=none;align=left;verticalAlign=top;spacingLeft=4;spacingRight=4;whiteSpace=wrap;overflow=hidden;rotatable=0;points=[];portConstraint=eastwest;part=1;" vertex="1" connectable="0" parent="Pq3xIhJE7gmnOF6xwbTR-42">
          <mxGeometry width="30" height="26" as="geometry" />
        </mxCell>
        <mxCell id="Pq3xIhJE7gmnOF6xwbTR-48" value="建檔時間戳" style="shape=partialRectangle;top=0;left=0;right=0;bottom=0;html=1;align=left;verticalAlign=top;fillColor=none;spacingLeft=34;spacingRight=4;whiteSpace=wrap;overflow=hidden;rotatable=0;points=[[0,0.5],[1,0.5]];portConstraint=eastwest;dropTarget=0;" vertex="1" parent="Pq3xIhJE7gmnOF6xwbTR-35">
          <mxGeometry y="134" width="160" height="26" as="geometry" />
        </mxCell>
        <mxCell id="Pq3xIhJE7gmnOF6xwbTR-49" value="" style="shape=partialRectangle;top=0;left=0;bottom=0;html=1;fillColor=none;align=left;verticalAlign=top;spacingLeft=4;spacingRight=4;whiteSpace=wrap;overflow=hidden;rotatable=0;points=[];portConstraint=eastwest;part=1;" vertex="1" connectable="0" parent="Pq3xIhJE7gmnOF6xwbTR-48">
          <mxGeometry width="30" height="26" as="geometry" />
        </mxCell>
        <mxCell id="Pq3xIhJE7gmnOF6xwbTR-46" value="進行中/結案" style="shape=partialRectangle;top=0;left=0;right=0;bottom=0;html=1;align=left;verticalAlign=top;fillColor=none;spacingLeft=34;spacingRight=4;whiteSpace=wrap;overflow=hidden;rotatable=0;points=[[0,0.5],[1,0.5]];portConstraint=eastwest;dropTarget=0;" vertex="1" parent="Pq3xIhJE7gmnOF6xwbTR-35">
          <mxGeometry y="160" width="160" height="26" as="geometry" />
        </mxCell>
        <mxCell id="Pq3xIhJE7gmnOF6xwbTR-47" value="" style="shape=partialRectangle;top=0;left=0;bottom=0;html=1;fillColor=none;align=left;verticalAlign=top;spacingLeft=4;spacingRight=4;whiteSpace=wrap;overflow=hidden;rotatable=0;points=[];portConstraint=eastwest;part=1;" vertex="1" connectable="0" parent="Pq3xIhJE7gmnOF6xwbTR-46">
          <mxGeometry width="30" height="26" as="geometry" />
        </mxCell>
        <mxCell id="Pq3xIhJE7gmnOF6xwbTR-44" value="" style="shape=partialRectangle;top=0;left=0;right=0;bottom=0;html=1;align=left;verticalAlign=top;fillColor=none;spacingLeft=34;spacingRight=4;whiteSpace=wrap;overflow=hidden;rotatable=0;points=[[0,0.5],[1,0.5]];portConstraint=eastwest;dropTarget=0;" vertex="1" parent="Pq3xIhJE7gmnOF6xwbTR-35">
          <mxGeometry y="186" width="160" height="10" as="geometry" />
        </mxCell>
        <mxCell id="Pq3xIhJE7gmnOF6xwbTR-45" value="" style="shape=partialRectangle;top=0;left=0;bottom=0;html=1;fillColor=none;align=left;verticalAlign=top;spacingLeft=4;spacingRight=4;whiteSpace=wrap;overflow=hidden;rotatable=0;points=[];portConstraint=eastwest;part=1;" vertex="1" connectable="0" parent="Pq3xIhJE7gmnOF6xwbTR-44">
          <mxGeometry width="30" height="10" as="geometry" />
        </mxCell>
        <mxCell id="Pq3xIhJE7gmnOF6xwbTR-50" value="minmax_offices" style="swimlane;html=1;fontStyle=0;childLayout=stackLayout;horizontal=1;startSize=26;fillColor=#e0e0e0;horizontalStack=0;resizeParent=1;resizeLast=0;collapsible=1;marginBottom=0;swimlaneFillColor=#ffffff;align=center;rounded=0;shadow=0;comic=0;labelBackgroundColor=none;strokeWidth=1;fontFamily=Verdana;fontSize=14" vertex="1" parent="1">
          <mxGeometry x="320" y="40" width="160" height="118" as="geometry" />
        </mxCell>
        <mxCell id="Pq3xIhJE7gmnOF6xwbTR-51" value="地址碼" style="shape=partialRectangle;top=0;left=0;right=0;bottom=1;html=1;align=left;verticalAlign=middle;fillColor=none;spacingLeft=34;spacingRight=4;whiteSpace=wrap;overflow=hidden;rotatable=0;points=[[0,0.5],[1,0.5]];portConstraint=eastwest;dropTarget=0;fontStyle=5;" vertex="1" parent="Pq3xIhJE7gmnOF6xwbTR-50">
          <mxGeometry y="26" width="160" height="30" as="geometry" />
        </mxCell>
        <mxCell id="Pq3xIhJE7gmnOF6xwbTR-52" value="PK" style="shape=partialRectangle;top=0;left=0;bottom=0;html=1;fillColor=none;align=left;verticalAlign=middle;spacingLeft=4;spacingRight=4;whiteSpace=wrap;overflow=hidden;rotatable=0;points=[];portConstraint=eastwest;part=1;" vertex="1" connectable="0" parent="Pq3xIhJE7gmnOF6xwbTR-51">
          <mxGeometry width="30" height="30" as="geometry" />
        </mxCell>
        <mxCell id="Pq3xIhJE7gmnOF6xwbTR-53" value="地點名稱" style="shape=partialRectangle;top=0;left=0;right=0;bottom=0;html=1;align=left;verticalAlign=top;fillColor=none;spacingLeft=34;spacingRight=4;whiteSpace=wrap;overflow=hidden;rotatable=0;points=[[0,0.5],[1,0.5]];portConstraint=eastwest;dropTarget=0;" vertex="1" parent="Pq3xIhJE7gmnOF6xwbTR-50">
          <mxGeometry y="56" width="160" height="26" as="geometry" />
        </mxCell>
        <mxCell id="Pq3xIhJE7gmnOF6xwbTR-54" value="" style="shape=partialRectangle;top=0;left=0;bottom=0;html=1;fillColor=none;align=left;verticalAlign=top;spacingLeft=4;spacingRight=4;whiteSpace=wrap;overflow=hidden;rotatable=0;points=[];portConstraint=eastwest;part=1;" vertex="1" connectable="0" parent="Pq3xIhJE7gmnOF6xwbTR-53">
          <mxGeometry width="30" height="26" as="geometry" />
        </mxCell>
        <mxCell id="Pq3xIhJE7gmnOF6xwbTR-55" value="地址" style="shape=partialRectangle;top=0;left=0;right=0;bottom=0;html=1;align=left;verticalAlign=top;fillColor=none;spacingLeft=34;spacingRight=4;whiteSpace=wrap;overflow=hidden;rotatable=0;points=[[0,0.5],[1,0.5]];portConstraint=eastwest;dropTarget=0;" vertex="1" parent="Pq3xIhJE7gmnOF6xwbTR-50">
          <mxGeometry y="82" width="160" height="26" as="geometry" />
        </mxCell>
        <mxCell id="Pq3xIhJE7gmnOF6xwbTR-56" value="" style="shape=partialRectangle;top=0;left=0;bottom=0;html=1;fillColor=none;align=left;verticalAlign=top;spacingLeft=4;spacingRight=4;whiteSpace=wrap;overflow=hidden;rotatable=0;points=[];portConstraint=eastwest;part=1;" vertex="1" connectable="0" parent="Pq3xIhJE7gmnOF6xwbTR-55">
          <mxGeometry width="30" height="26" as="geometry" />
        </mxCell>
        <mxCell id="Pq3xIhJE7gmnOF6xwbTR-59" value="" style="shape=partialRectangle;top=0;left=0;right=0;bottom=0;html=1;align=left;verticalAlign=top;fillColor=none;spacingLeft=34;spacingRight=4;whiteSpace=wrap;overflow=hidden;rotatable=0;points=[[0,0.5],[1,0.5]];portConstraint=eastwest;dropTarget=0;" vertex="1" parent="Pq3xIhJE7gmnOF6xwbTR-50">
          <mxGeometry y="108" width="160" height="10" as="geometry" />
        </mxCell>
        <mxCell id="Pq3xIhJE7gmnOF6xwbTR-60" value="" style="shape=partialRectangle;top=0;left=0;bottom=0;html=1;fillColor=none;align=left;verticalAlign=top;spacingLeft=4;spacingRight=4;whiteSpace=wrap;overflow=hidden;rotatable=0;points=[];portConstraint=eastwest;part=1;" vertex="1" connectable="0" parent="Pq3xIhJE7gmnOF6xwbTR-59">
          <mxGeometry width="30" height="10" as="geometry" />
        </mxCell>
        <mxCell id="Pq3xIhJE7gmnOF6xwbTR-61" value="materials" style="swimlane;html=1;fontStyle=0;childLayout=stackLayout;horizontal=1;startSize=26;fillColor=#e0e0e0;horizontalStack=0;resizeParent=1;resizeLast=0;collapsible=1;marginBottom=0;swimlaneFillColor=#ffffff;align=center;rounded=0;shadow=0;comic=0;labelBackgroundColor=none;strokeWidth=1;fontFamily=Verdana;fontSize=14" vertex="1" parent="1">
          <mxGeometry x="320" y="200" width="160" height="352" as="geometry" />
        </mxCell>
        <mxCell id="Pq3xIhJE7gmnOF6xwbTR-62" value="默認遞增主鍵" style="shape=partialRectangle;top=0;left=0;right=0;bottom=1;html=1;align=left;verticalAlign=middle;fillColor=none;spacingLeft=34;spacingRight=4;whiteSpace=wrap;overflow=hidden;rotatable=0;points=[[0,0.5],[1,0.5]];portConstraint=eastwest;dropTarget=0;fontStyle=5;" vertex="1" parent="Pq3xIhJE7gmnOF6xwbTR-61">
          <mxGeometry y="26" width="160" height="30" as="geometry" />
        </mxCell>
        <mxCell id="Pq3xIhJE7gmnOF6xwbTR-63" value="PK" style="shape=partialRectangle;top=0;left=0;bottom=0;html=1;fillColor=none;align=left;verticalAlign=middle;spacingLeft=4;spacingRight=4;whiteSpace=wrap;overflow=hidden;rotatable=0;points=[];portConstraint=eastwest;part=1;" vertex="1" connectable="0" parent="Pq3xIhJE7gmnOF6xwbTR-62">
          <mxGeometry width="30" height="30" as="geometry" />
        </mxCell>
        <mxCell id="Pq3xIhJE7gmnOF6xwbTR-64" value="物料代號" style="shape=partialRectangle;top=0;left=0;right=0;bottom=0;html=1;align=left;verticalAlign=top;fillColor=none;spacingLeft=34;spacingRight=4;whiteSpace=wrap;overflow=hidden;rotatable=0;points=[[0,0.5],[1,0.5]];portConstraint=eastwest;dropTarget=0;" vertex="1" parent="Pq3xIhJE7gmnOF6xwbTR-61">
          <mxGeometry y="56" width="160" height="26" as="geometry" />
        </mxCell>
        <mxCell id="Pq3xIhJE7gmnOF6xwbTR-65" value="" style="shape=partialRectangle;top=0;left=0;bottom=0;html=1;fillColor=none;align=left;verticalAlign=top;spacingLeft=4;spacingRight=4;whiteSpace=wrap;overflow=hidden;rotatable=0;points=[];portConstraint=eastwest;part=1;" vertex="1" connectable="0" parent="Pq3xIhJE7gmnOF6xwbTR-64">
          <mxGeometry width="30" height="26" as="geometry" />
        </mxCell>
        <mxCell id="Pq3xIhJE7gmnOF6xwbTR-66" value="品名規格" style="shape=partialRectangle;top=0;left=0;right=0;bottom=0;html=1;align=left;verticalAlign=top;fillColor=none;spacingLeft=34;spacingRight=4;whiteSpace=wrap;overflow=hidden;rotatable=0;points=[[0,0.5],[1,0.5]];portConstraint=eastwest;dropTarget=0;" vertex="1" parent="Pq3xIhJE7gmnOF6xwbTR-61">
          <mxGeometry y="82" width="160" height="26" as="geometry" />
        </mxCell>
        <mxCell id="Pq3xIhJE7gmnOF6xwbTR-67" value="" style="shape=partialRectangle;top=0;left=0;bottom=0;html=1;fillColor=none;align=left;verticalAlign=top;spacingLeft=4;spacingRight=4;whiteSpace=wrap;overflow=hidden;rotatable=0;points=[];portConstraint=eastwest;part=1;" vertex="1" connectable="0" parent="Pq3xIhJE7gmnOF6xwbTR-66">
          <mxGeometry width="30" height="26" as="geometry" />
        </mxCell>
        <mxCell id="Pq3xIhJE7gmnOF6xwbTR-68" value="預設物料類別" style="shape=partialRectangle;top=0;left=0;right=0;bottom=0;html=1;align=left;verticalAlign=top;fillColor=none;spacingLeft=34;spacingRight=4;whiteSpace=wrap;overflow=hidden;rotatable=0;points=[[0,0.5],[1,0.5]];portConstraint=eastwest;dropTarget=0;" vertex="1" parent="Pq3xIhJE7gmnOF6xwbTR-61">
          <mxGeometry y="108" width="160" height="26" as="geometry" />
        </mxCell>
        <mxCell id="Pq3xIhJE7gmnOF6xwbTR-69" value="FK" style="shape=partialRectangle;top=0;left=0;bottom=0;html=1;fillColor=none;align=left;verticalAlign=top;spacingLeft=4;spacingRight=4;whiteSpace=wrap;overflow=hidden;rotatable=0;points=[];portConstraint=eastwest;part=1;" vertex="1" connectable="0" parent="Pq3xIhJE7gmnOF6xwbTR-68">
          <mxGeometry width="30" height="26" as="geometry" />
        </mxCell>
        <mxCell id="Pq3xIhJE7gmnOF6xwbTR-72" value="供應商簡稱" style="shape=partialRectangle;top=0;left=0;right=0;bottom=0;html=1;align=left;verticalAlign=top;fillColor=none;spacingLeft=34;spacingRight=4;whiteSpace=wrap;overflow=hidden;rotatable=0;points=[[0,0.5],[1,0.5]];portConstraint=eastwest;dropTarget=0;" vertex="1" parent="Pq3xIhJE7gmnOF6xwbTR-61">
          <mxGeometry y="134" width="160" height="26" as="geometry" />
        </mxCell>
        <mxCell id="Pq3xIhJE7gmnOF6xwbTR-73" value="FK" style="shape=partialRectangle;top=0;left=0;bottom=0;html=1;fillColor=none;align=left;verticalAlign=top;spacingLeft=4;spacingRight=4;whiteSpace=wrap;overflow=hidden;rotatable=0;points=[];portConstraint=eastwest;part=1;" vertex="1" connectable="0" parent="Pq3xIhJE7gmnOF6xwbTR-72">
          <mxGeometry width="30" height="26" as="geometry" />
        </mxCell>
        <mxCell id="Pq3xIhJE7gmnOF6xwbTR-76" value="單價" style="shape=partialRectangle;top=0;left=0;right=0;bottom=0;html=1;align=left;verticalAlign=top;fillColor=none;spacingLeft=34;spacingRight=4;whiteSpace=wrap;overflow=hidden;rotatable=0;points=[[0,0.5],[1,0.5]];portConstraint=eastwest;dropTarget=0;" vertex="1" parent="Pq3xIhJE7gmnOF6xwbTR-61">
          <mxGeometry y="160" width="160" height="26" as="geometry" />
        </mxCell>
        <mxCell id="Pq3xIhJE7gmnOF6xwbTR-77" value="" style="shape=partialRectangle;top=0;left=0;bottom=0;html=1;fillColor=none;align=left;verticalAlign=top;spacingLeft=4;spacingRight=4;whiteSpace=wrap;overflow=hidden;rotatable=0;points=[];portConstraint=eastwest;part=1;" vertex="1" connectable="0" parent="Pq3xIhJE7gmnOF6xwbTR-76">
          <mxGeometry width="30" height="26" as="geometry" />
        </mxCell>
        <mxCell id="Pq3xIhJE7gmnOF6xwbTR-82" value="單位" style="shape=partialRectangle;top=0;left=0;right=0;bottom=0;html=1;align=left;verticalAlign=top;fillColor=none;spacingLeft=34;spacingRight=4;whiteSpace=wrap;overflow=hidden;rotatable=0;points=[[0,0.5],[1,0.5]];portConstraint=eastwest;dropTarget=0;" vertex="1" parent="Pq3xIhJE7gmnOF6xwbTR-61">
          <mxGeometry y="186" width="160" height="26" as="geometry" />
        </mxCell>
        <mxCell id="Pq3xIhJE7gmnOF6xwbTR-83" value="FK" style="shape=partialRectangle;top=0;left=0;bottom=0;html=1;fillColor=none;align=left;verticalAlign=top;spacingLeft=4;spacingRight=4;whiteSpace=wrap;overflow=hidden;rotatable=0;points=[];portConstraint=eastwest;part=1;" vertex="1" connectable="0" parent="Pq3xIhJE7gmnOF6xwbTR-82">
          <mxGeometry width="30" height="26" as="geometry" />
        </mxCell>
        <mxCell id="Pq3xIhJE7gmnOF6xwbTR-80" value="幣別&lt;span style=&quot;white-space: pre;&quot;&gt;&#x9;&lt;/span&gt;" style="shape=partialRectangle;top=0;left=0;right=0;bottom=0;html=1;align=left;verticalAlign=top;fillColor=none;spacingLeft=34;spacingRight=4;whiteSpace=wrap;overflow=hidden;rotatable=0;points=[[0,0.5],[1,0.5]];portConstraint=eastwest;dropTarget=0;" vertex="1" parent="Pq3xIhJE7gmnOF6xwbTR-61">
          <mxGeometry y="212" width="160" height="26" as="geometry" />
        </mxCell>
        <mxCell id="Pq3xIhJE7gmnOF6xwbTR-81" value="FK" style="shape=partialRectangle;top=0;left=0;bottom=0;html=1;fillColor=none;align=left;verticalAlign=top;spacingLeft=4;spacingRight=4;whiteSpace=wrap;overflow=hidden;rotatable=0;points=[];portConstraint=eastwest;part=1;" vertex="1" connectable="0" parent="Pq3xIhJE7gmnOF6xwbTR-80">
          <mxGeometry width="30" height="26" as="geometry" />
        </mxCell>
        <mxCell id="Pq3xIhJE7gmnOF6xwbTR-78" value="預設收貨地址碼" style="shape=partialRectangle;top=0;left=0;right=0;bottom=0;html=1;align=left;verticalAlign=top;fillColor=none;spacingLeft=34;spacingRight=4;whiteSpace=wrap;overflow=hidden;rotatable=0;points=[[0,0.5],[1,0.5]];portConstraint=eastwest;dropTarget=0;" vertex="1" parent="Pq3xIhJE7gmnOF6xwbTR-61">
          <mxGeometry y="238" width="160" height="26" as="geometry" />
        </mxCell>
        <mxCell id="Pq3xIhJE7gmnOF6xwbTR-79" value="FK" style="shape=partialRectangle;top=0;left=0;bottom=0;html=1;fillColor=none;align=left;verticalAlign=top;spacingLeft=4;spacingRight=4;whiteSpace=wrap;overflow=hidden;rotatable=0;points=[];portConstraint=eastwest;part=1;" vertex="1" connectable="0" parent="Pq3xIhJE7gmnOF6xwbTR-78">
          <mxGeometry width="30" height="26" as="geometry" />
        </mxCell>
        <mxCell id="Pq3xIhJE7gmnOF6xwbTR-74" value="最後使用時間戳" style="shape=partialRectangle;top=0;left=0;right=0;bottom=0;html=1;align=left;verticalAlign=top;fillColor=none;spacingLeft=34;spacingRight=4;whiteSpace=wrap;overflow=hidden;rotatable=0;points=[[0,0.5],[1,0.5]];portConstraint=eastwest;dropTarget=0;" vertex="1" parent="Pq3xIhJE7gmnOF6xwbTR-61">
          <mxGeometry y="264" width="160" height="26" as="geometry" />
        </mxCell>
        <mxCell id="Pq3xIhJE7gmnOF6xwbTR-75" value="" style="shape=partialRectangle;top=0;left=0;bottom=0;html=1;fillColor=none;align=left;verticalAlign=top;spacingLeft=4;spacingRight=4;whiteSpace=wrap;overflow=hidden;rotatable=0;points=[];portConstraint=eastwest;part=1;" vertex="1" connectable="0" parent="Pq3xIhJE7gmnOF6xwbTR-74">
          <mxGeometry width="30" height="26" as="geometry" />
        </mxCell>
        <mxCell id="Pq3xIhJE7gmnOF6xwbTR-86" value="建檔時間戳" style="shape=partialRectangle;top=0;left=0;right=0;bottom=0;html=1;align=left;verticalAlign=top;fillColor=none;spacingLeft=34;spacingRight=4;whiteSpace=wrap;overflow=hidden;rotatable=0;points=[[0,0.5],[1,0.5]];portConstraint=eastwest;dropTarget=0;" vertex="1" parent="Pq3xIhJE7gmnOF6xwbTR-61">
          <mxGeometry y="290" width="160" height="26" as="geometry" />
        </mxCell>
        <mxCell id="Pq3xIhJE7gmnOF6xwbTR-87" value="" style="shape=partialRectangle;top=0;left=0;bottom=0;html=1;fillColor=none;align=left;verticalAlign=top;spacingLeft=4;spacingRight=4;whiteSpace=wrap;overflow=hidden;rotatable=0;points=[];portConstraint=eastwest;part=1;" vertex="1" connectable="0" parent="Pq3xIhJE7gmnOF6xwbTR-86">
          <mxGeometry width="30" height="26" as="geometry" />
        </mxCell>
        <mxCell id="Pq3xIhJE7gmnOF6xwbTR-84" value="廢棄時間戳" style="shape=partialRectangle;top=0;left=0;right=0;bottom=0;html=1;align=left;verticalAlign=top;fillColor=none;spacingLeft=34;spacingRight=4;whiteSpace=wrap;overflow=hidden;rotatable=0;points=[[0,0.5],[1,0.5]];portConstraint=eastwest;dropTarget=0;" vertex="1" parent="Pq3xIhJE7gmnOF6xwbTR-61">
          <mxGeometry y="316" width="160" height="26" as="geometry" />
        </mxCell>
        <mxCell id="Pq3xIhJE7gmnOF6xwbTR-85" value="" style="shape=partialRectangle;top=0;left=0;bottom=0;html=1;fillColor=none;align=left;verticalAlign=top;spacingLeft=4;spacingRight=4;whiteSpace=wrap;overflow=hidden;rotatable=0;points=[];portConstraint=eastwest;part=1;" vertex="1" connectable="0" parent="Pq3xIhJE7gmnOF6xwbTR-84">
          <mxGeometry width="30" height="26" as="geometry" />
        </mxCell>
        <mxCell id="Pq3xIhJE7gmnOF6xwbTR-70" value="" style="shape=partialRectangle;top=0;left=0;right=0;bottom=0;html=1;align=left;verticalAlign=top;fillColor=none;spacingLeft=34;spacingRight=4;whiteSpace=wrap;overflow=hidden;rotatable=0;points=[[0,0.5],[1,0.5]];portConstraint=eastwest;dropTarget=0;" vertex="1" parent="Pq3xIhJE7gmnOF6xwbTR-61">
          <mxGeometry y="342" width="160" height="10" as="geometry" />
        </mxCell>
        <mxCell id="Pq3xIhJE7gmnOF6xwbTR-71" value="" style="shape=partialRectangle;top=0;left=0;bottom=0;html=1;fillColor=none;align=left;verticalAlign=top;spacingLeft=4;spacingRight=4;whiteSpace=wrap;overflow=hidden;rotatable=0;points=[];portConstraint=eastwest;part=1;" vertex="1" connectable="0" parent="Pq3xIhJE7gmnOF6xwbTR-70">
          <mxGeometry width="30" height="10" as="geometry" />
        </mxCell>
        <mxCell id="Pq3xIhJE7gmnOF6xwbTR-101" value="purchase_requisitions" style="swimlane;html=1;fontStyle=0;childLayout=stackLayout;horizontal=1;startSize=26;fillColor=#e0e0e0;horizontalStack=0;resizeParent=1;resizeLast=0;collapsible=1;marginBottom=0;swimlaneFillColor=#ffffff;align=center;rounded=0;shadow=0;comic=0;labelBackgroundColor=none;strokeWidth=1;fontFamily=Verdana;fontSize=14" vertex="1" parent="1">
          <mxGeometry x="840" y="360" width="160" height="170" as="geometry" />
        </mxCell>
        <mxCell id="Pq3xIhJE7gmnOF6xwbTR-102" value="資材部請購單號" style="shape=partialRectangle;top=0;left=0;right=0;bottom=1;html=1;align=left;verticalAlign=middle;fillColor=none;spacingLeft=34;spacingRight=4;whiteSpace=wrap;overflow=hidden;rotatable=0;points=[[0,0.5],[1,0.5]];portConstraint=eastwest;dropTarget=0;fontStyle=5;" vertex="1" parent="Pq3xIhJE7gmnOF6xwbTR-101">
          <mxGeometry y="26" width="160" height="30" as="geometry" />
        </mxCell>
        <mxCell id="Pq3xIhJE7gmnOF6xwbTR-103" value="PK" style="shape=partialRectangle;top=0;left=0;bottom=0;html=1;fillColor=none;align=left;verticalAlign=middle;spacingLeft=4;spacingRight=4;whiteSpace=wrap;overflow=hidden;rotatable=0;points=[];portConstraint=eastwest;part=1;" vertex="1" connectable="0" parent="Pq3xIhJE7gmnOF6xwbTR-102">
          <mxGeometry width="30" height="30" as="geometry" />
        </mxCell>
        <mxCell id="Pq3xIhJE7gmnOF6xwbTR-104" value="送單時間戳" style="shape=partialRectangle;top=0;left=0;right=0;bottom=0;html=1;align=left;verticalAlign=top;fillColor=none;spacingLeft=34;spacingRight=4;whiteSpace=wrap;overflow=hidden;rotatable=0;points=[[0,0.5],[1,0.5]];portConstraint=eastwest;dropTarget=0;" vertex="1" parent="Pq3xIhJE7gmnOF6xwbTR-101">
          <mxGeometry y="56" width="160" height="26" as="geometry" />
        </mxCell>
        <mxCell id="Pq3xIhJE7gmnOF6xwbTR-105" value="" style="shape=partialRectangle;top=0;left=0;bottom=0;html=1;fillColor=none;align=left;verticalAlign=top;spacingLeft=4;spacingRight=4;whiteSpace=wrap;overflow=hidden;rotatable=0;points=[];portConstraint=eastwest;part=1;" vertex="1" connectable="0" parent="Pq3xIhJE7gmnOF6xwbTR-104">
          <mxGeometry width="30" height="26" as="geometry" />
        </mxCell>
        <mxCell id="Pq3xIhJE7gmnOF6xwbTR-106" value="送單狀態" style="shape=partialRectangle;top=0;left=0;right=0;bottom=0;html=1;align=left;verticalAlign=top;fillColor=none;spacingLeft=34;spacingRight=4;whiteSpace=wrap;overflow=hidden;rotatable=0;points=[[0,0.5],[1,0.5]];portConstraint=eastwest;dropTarget=0;" vertex="1" parent="Pq3xIhJE7gmnOF6xwbTR-101">
          <mxGeometry y="82" width="160" height="26" as="geometry" />
        </mxCell>
        <mxCell id="Pq3xIhJE7gmnOF6xwbTR-107" value="" style="shape=partialRectangle;top=0;left=0;bottom=0;html=1;fillColor=none;align=left;verticalAlign=top;spacingLeft=4;spacingRight=4;whiteSpace=wrap;overflow=hidden;rotatable=0;points=[];portConstraint=eastwest;part=1;" vertex="1" connectable="0" parent="Pq3xIhJE7gmnOF6xwbTR-106">
          <mxGeometry width="30" height="26" as="geometry" />
        </mxCell>
        <mxCell id="Pq3xIhJE7gmnOF6xwbTR-108" value="請購單狀態" style="shape=partialRectangle;top=0;left=0;right=0;bottom=0;html=1;align=left;verticalAlign=top;fillColor=none;spacingLeft=34;spacingRight=4;whiteSpace=wrap;overflow=hidden;rotatable=0;points=[[0,0.5],[1,0.5]];portConstraint=eastwest;dropTarget=0;" vertex="1" parent="Pq3xIhJE7gmnOF6xwbTR-101">
          <mxGeometry y="108" width="160" height="26" as="geometry" />
        </mxCell>
        <mxCell id="Pq3xIhJE7gmnOF6xwbTR-109" value="" style="shape=partialRectangle;top=0;left=0;bottom=0;html=1;fillColor=none;align=left;verticalAlign=top;spacingLeft=4;spacingRight=4;whiteSpace=wrap;overflow=hidden;rotatable=0;points=[];portConstraint=eastwest;part=1;" vertex="1" connectable="0" parent="Pq3xIhJE7gmnOF6xwbTR-108">
          <mxGeometry width="30" height="26" as="geometry" />
        </mxCell>
        <mxCell id="Pq3xIhJE7gmnOF6xwbTR-192" value="狀態更新時間戳" style="shape=partialRectangle;top=0;left=0;right=0;bottom=0;html=1;align=left;verticalAlign=top;fillColor=none;spacingLeft=34;spacingRight=4;whiteSpace=wrap;overflow=hidden;rotatable=0;points=[[0,0.5],[1,0.5]];portConstraint=eastwest;dropTarget=0;" vertex="1" parent="Pq3xIhJE7gmnOF6xwbTR-101">
          <mxGeometry y="134" width="160" height="26" as="geometry" />
        </mxCell>
        <mxCell id="Pq3xIhJE7gmnOF6xwbTR-193" value="" style="shape=partialRectangle;top=0;left=0;bottom=0;html=1;fillColor=none;align=left;verticalAlign=top;spacingLeft=4;spacingRight=4;whiteSpace=wrap;overflow=hidden;rotatable=0;points=[];portConstraint=eastwest;part=1;" vertex="1" connectable="0" parent="Pq3xIhJE7gmnOF6xwbTR-192">
          <mxGeometry width="30" height="26" as="geometry" />
        </mxCell>
        <mxCell id="Pq3xIhJE7gmnOF6xwbTR-110" value="" style="shape=partialRectangle;top=0;left=0;right=0;bottom=0;html=1;align=left;verticalAlign=top;fillColor=none;spacingLeft=34;spacingRight=4;whiteSpace=wrap;overflow=hidden;rotatable=0;points=[[0,0.5],[1,0.5]];portConstraint=eastwest;dropTarget=0;" vertex="1" parent="Pq3xIhJE7gmnOF6xwbTR-101">
          <mxGeometry y="160" width="160" height="10" as="geometry" />
        </mxCell>
        <mxCell id="Pq3xIhJE7gmnOF6xwbTR-111" value="" style="shape=partialRectangle;top=0;left=0;bottom=0;html=1;fillColor=none;align=left;verticalAlign=top;spacingLeft=4;spacingRight=4;whiteSpace=wrap;overflow=hidden;rotatable=0;points=[];portConstraint=eastwest;part=1;" vertex="1" connectable="0" parent="Pq3xIhJE7gmnOF6xwbTR-110">
          <mxGeometry width="30" height="10" as="geometry" />
        </mxCell>
        <mxCell id="Pq3xIhJE7gmnOF6xwbTR-112" value="requisition_types" style="swimlane;html=1;fontStyle=0;childLayout=stackLayout;horizontal=1;startSize=26;fillColor=#e0e0e0;horizontalStack=0;resizeParent=1;resizeLast=0;collapsible=1;marginBottom=0;swimlaneFillColor=#ffffff;align=center;rounded=0;shadow=0;comic=0;labelBackgroundColor=none;strokeWidth=1;fontFamily=Verdana;fontSize=14" vertex="1" parent="1">
          <mxGeometry x="840" y="40" width="160" height="56" as="geometry" />
        </mxCell>
        <mxCell id="Pq3xIhJE7gmnOF6xwbTR-113" value="請購類型" style="shape=partialRectangle;top=0;left=0;right=0;bottom=1;html=1;align=left;verticalAlign=middle;fillColor=none;spacingLeft=34;spacingRight=4;whiteSpace=wrap;overflow=hidden;rotatable=0;points=[[0,0.5],[1,0.5]];portConstraint=eastwest;dropTarget=0;fontStyle=5;" vertex="1" parent="Pq3xIhJE7gmnOF6xwbTR-112">
          <mxGeometry y="26" width="160" height="30" as="geometry" />
        </mxCell>
        <mxCell id="Pq3xIhJE7gmnOF6xwbTR-114" value="PK" style="shape=partialRectangle;top=0;left=0;bottom=0;html=1;fillColor=none;align=left;verticalAlign=middle;spacingLeft=4;spacingRight=4;whiteSpace=wrap;overflow=hidden;rotatable=0;points=[];portConstraint=eastwest;part=1;" vertex="1" connectable="0" parent="Pq3xIhJE7gmnOF6xwbTR-113">
          <mxGeometry width="30" height="30" as="geometry" />
        </mxCell>
        <mxCell id="Pq3xIhJE7gmnOF6xwbTR-123" value="supplier" style="swimlane;html=1;fontStyle=0;childLayout=stackLayout;horizontal=1;startSize=26;fillColor=#e0e0e0;horizontalStack=0;resizeParent=1;resizeLast=0;collapsible=1;marginBottom=0;swimlaneFillColor=#ffffff;align=center;rounded=0;shadow=0;comic=0;labelBackgroundColor=none;strokeWidth=1;fontFamily=Verdana;fontSize=14" vertex="1" parent="1">
          <mxGeometry x="80" y="120" width="160" height="170" as="geometry" />
        </mxCell>
        <mxCell id="Pq3xIhJE7gmnOF6xwbTR-124" value="供應商編號" style="shape=partialRectangle;top=0;left=0;right=0;bottom=1;html=1;align=left;verticalAlign=middle;fillColor=none;spacingLeft=34;spacingRight=4;whiteSpace=wrap;overflow=hidden;rotatable=0;points=[[0,0.5],[1,0.5]];portConstraint=eastwest;dropTarget=0;fontStyle=5;" vertex="1" parent="Pq3xIhJE7gmnOF6xwbTR-123">
          <mxGeometry y="26" width="160" height="30" as="geometry" />
        </mxCell>
        <mxCell id="Pq3xIhJE7gmnOF6xwbTR-125" value="PK" style="shape=partialRectangle;top=0;left=0;bottom=0;html=1;fillColor=none;align=left;verticalAlign=middle;spacingLeft=4;spacingRight=4;whiteSpace=wrap;overflow=hidden;rotatable=0;points=[];portConstraint=eastwest;part=1;" vertex="1" connectable="0" parent="Pq3xIhJE7gmnOF6xwbTR-124">
          <mxGeometry width="30" height="30" as="geometry" />
        </mxCell>
        <mxCell id="Pq3xIhJE7gmnOF6xwbTR-126" value="廠內簡稱" style="shape=partialRectangle;top=0;left=0;right=0;bottom=0;html=1;align=left;verticalAlign=top;fillColor=none;spacingLeft=34;spacingRight=4;whiteSpace=wrap;overflow=hidden;rotatable=0;points=[[0,0.5],[1,0.5]];portConstraint=eastwest;dropTarget=0;" vertex="1" parent="Pq3xIhJE7gmnOF6xwbTR-123">
          <mxGeometry y="56" width="160" height="26" as="geometry" />
        </mxCell>
        <mxCell id="Pq3xIhJE7gmnOF6xwbTR-127" value="" style="shape=partialRectangle;top=0;left=0;bottom=0;html=1;fillColor=none;align=left;verticalAlign=top;spacingLeft=4;spacingRight=4;whiteSpace=wrap;overflow=hidden;rotatable=0;points=[];portConstraint=eastwest;part=1;" vertex="1" connectable="0" parent="Pq3xIhJE7gmnOF6xwbTR-126">
          <mxGeometry width="30" height="26" as="geometry" />
        </mxCell>
        <mxCell id="Pq3xIhJE7gmnOF6xwbTR-128" value="公司全名" style="shape=partialRectangle;top=0;left=0;right=0;bottom=0;html=1;align=left;verticalAlign=top;fillColor=none;spacingLeft=34;spacingRight=4;whiteSpace=wrap;overflow=hidden;rotatable=0;points=[[0,0.5],[1,0.5]];portConstraint=eastwest;dropTarget=0;" vertex="1" parent="Pq3xIhJE7gmnOF6xwbTR-123">
          <mxGeometry y="82" width="160" height="26" as="geometry" />
        </mxCell>
        <mxCell id="Pq3xIhJE7gmnOF6xwbTR-129" value="" style="shape=partialRectangle;top=0;left=0;bottom=0;html=1;fillColor=none;align=left;verticalAlign=top;spacingLeft=4;spacingRight=4;whiteSpace=wrap;overflow=hidden;rotatable=0;points=[];portConstraint=eastwest;part=1;" vertex="1" connectable="0" parent="Pq3xIhJE7gmnOF6xwbTR-128">
          <mxGeometry width="30" height="26" as="geometry" />
        </mxCell>
        <mxCell id="Pq3xIhJE7gmnOF6xwbTR-130" value="營業項目" style="shape=partialRectangle;top=0;left=0;right=0;bottom=0;html=1;align=left;verticalAlign=top;fillColor=none;spacingLeft=34;spacingRight=4;whiteSpace=wrap;overflow=hidden;rotatable=0;points=[[0,0.5],[1,0.5]];portConstraint=eastwest;dropTarget=0;" vertex="1" parent="Pq3xIhJE7gmnOF6xwbTR-123">
          <mxGeometry y="108" width="160" height="26" as="geometry" />
        </mxCell>
        <mxCell id="Pq3xIhJE7gmnOF6xwbTR-131" value="" style="shape=partialRectangle;top=0;left=0;bottom=0;html=1;fillColor=none;align=left;verticalAlign=top;spacingLeft=4;spacingRight=4;whiteSpace=wrap;overflow=hidden;rotatable=0;points=[];portConstraint=eastwest;part=1;" vertex="1" connectable="0" parent="Pq3xIhJE7gmnOF6xwbTR-130">
          <mxGeometry width="30" height="26" as="geometry" />
        </mxCell>
        <mxCell id="Pq3xIhJE7gmnOF6xwbTR-135" value="建檔時間戳" style="shape=partialRectangle;top=0;left=0;right=0;bottom=0;html=1;align=left;verticalAlign=top;fillColor=none;spacingLeft=34;spacingRight=4;whiteSpace=wrap;overflow=hidden;rotatable=0;points=[[0,0.5],[1,0.5]];portConstraint=eastwest;dropTarget=0;" vertex="1" parent="Pq3xIhJE7gmnOF6xwbTR-123">
          <mxGeometry y="134" width="160" height="26" as="geometry" />
        </mxCell>
        <mxCell id="Pq3xIhJE7gmnOF6xwbTR-136" value="" style="shape=partialRectangle;top=0;left=0;bottom=0;html=1;fillColor=none;align=left;verticalAlign=top;spacingLeft=4;spacingRight=4;whiteSpace=wrap;overflow=hidden;rotatable=0;points=[];portConstraint=eastwest;part=1;" vertex="1" connectable="0" parent="Pq3xIhJE7gmnOF6xwbTR-135">
          <mxGeometry width="30" height="26" as="geometry" />
        </mxCell>
        <mxCell id="Pq3xIhJE7gmnOF6xwbTR-132" value="" style="shape=partialRectangle;top=0;left=0;right=0;bottom=0;html=1;align=left;verticalAlign=top;fillColor=none;spacingLeft=34;spacingRight=4;whiteSpace=wrap;overflow=hidden;rotatable=0;points=[[0,0.5],[1,0.5]];portConstraint=eastwest;dropTarget=0;" vertex="1" parent="Pq3xIhJE7gmnOF6xwbTR-123">
          <mxGeometry y="160" width="160" height="10" as="geometry" />
        </mxCell>
        <mxCell id="Pq3xIhJE7gmnOF6xwbTR-133" value="" style="shape=partialRectangle;top=0;left=0;bottom=0;html=1;fillColor=none;align=left;verticalAlign=top;spacingLeft=4;spacingRight=4;whiteSpace=wrap;overflow=hidden;rotatable=0;points=[];portConstraint=eastwest;part=1;" vertex="1" connectable="0" parent="Pq3xIhJE7gmnOF6xwbTR-132">
          <mxGeometry width="30" height="10" as="geometry" />
        </mxCell>
        <mxCell id="Pq3xIhJE7gmnOF6xwbTR-137" value="acceptance_notes" style="swimlane;html=1;fontStyle=0;childLayout=stackLayout;horizontal=1;startSize=26;fillColor=#e0e0e0;horizontalStack=0;resizeParent=1;resizeLast=0;collapsible=1;marginBottom=0;swimlaneFillColor=#ffffff;align=center;rounded=0;shadow=0;comic=0;labelBackgroundColor=none;strokeWidth=1;fontFamily=Verdana;fontSize=14" vertex="1" parent="1">
          <mxGeometry x="320" y="600" width="160" height="222" as="geometry" />
        </mxCell>
        <mxCell id="Pq3xIhJE7gmnOF6xwbTR-138" value="資材部收料單號" style="shape=partialRectangle;top=0;left=0;right=0;bottom=1;html=1;align=left;verticalAlign=middle;fillColor=none;spacingLeft=34;spacingRight=4;whiteSpace=wrap;overflow=hidden;rotatable=0;points=[[0,0.5],[1,0.5]];portConstraint=eastwest;dropTarget=0;fontStyle=5;" vertex="1" parent="Pq3xIhJE7gmnOF6xwbTR-137">
          <mxGeometry y="26" width="160" height="30" as="geometry" />
        </mxCell>
        <mxCell id="Pq3xIhJE7gmnOF6xwbTR-139" value="PK" style="shape=partialRectangle;top=0;left=0;bottom=0;html=1;fillColor=none;align=left;verticalAlign=middle;spacingLeft=4;spacingRight=4;whiteSpace=wrap;overflow=hidden;rotatable=0;points=[];portConstraint=eastwest;part=1;" vertex="1" connectable="0" parent="Pq3xIhJE7gmnOF6xwbTR-138">
          <mxGeometry width="30" height="30" as="geometry" />
        </mxCell>
        <mxCell id="Pq3xIhJE7gmnOF6xwbTR-140" value="入庫數量" style="shape=partialRectangle;top=0;left=0;right=0;bottom=0;html=1;align=left;verticalAlign=top;fillColor=none;spacingLeft=34;spacingRight=4;whiteSpace=wrap;overflow=hidden;rotatable=0;points=[[0,0.5],[1,0.5]];portConstraint=eastwest;dropTarget=0;" vertex="1" parent="Pq3xIhJE7gmnOF6xwbTR-137">
          <mxGeometry y="56" width="160" height="26" as="geometry" />
        </mxCell>
        <mxCell id="Pq3xIhJE7gmnOF6xwbTR-141" value="" style="shape=partialRectangle;top=0;left=0;bottom=0;html=1;fillColor=none;align=left;verticalAlign=top;spacingLeft=4;spacingRight=4;whiteSpace=wrap;overflow=hidden;rotatable=0;points=[];portConstraint=eastwest;part=1;" vertex="1" connectable="0" parent="Pq3xIhJE7gmnOF6xwbTR-140">
          <mxGeometry width="30" height="26" as="geometry" />
        </mxCell>
        <mxCell id="Pq3xIhJE7gmnOF6xwbTR-142" value="收貨地址碼" style="shape=partialRectangle;top=0;left=0;right=0;bottom=0;html=1;align=left;verticalAlign=top;fillColor=none;spacingLeft=34;spacingRight=4;whiteSpace=wrap;overflow=hidden;rotatable=0;points=[[0,0.5],[1,0.5]];portConstraint=eastwest;dropTarget=0;" vertex="1" parent="Pq3xIhJE7gmnOF6xwbTR-137">
          <mxGeometry y="82" width="160" height="26" as="geometry" />
        </mxCell>
        <mxCell id="Pq3xIhJE7gmnOF6xwbTR-143" value="FK" style="shape=partialRectangle;top=0;left=0;bottom=0;html=1;fillColor=none;align=left;verticalAlign=top;spacingLeft=4;spacingRight=4;whiteSpace=wrap;overflow=hidden;rotatable=0;points=[];portConstraint=eastwest;part=1;" vertex="1" connectable="0" parent="Pq3xIhJE7gmnOF6xwbTR-142">
          <mxGeometry width="30" height="26" as="geometry" />
        </mxCell>
        <mxCell id="Pq3xIhJE7gmnOF6xwbTR-144" value="工程部內申請單號" style="shape=partialRectangle;top=0;left=0;right=0;bottom=0;html=1;align=left;verticalAlign=top;fillColor=none;spacingLeft=34;spacingRight=4;whiteSpace=wrap;overflow=hidden;rotatable=0;points=[[0,0.5],[1,0.5]];portConstraint=eastwest;dropTarget=0;" vertex="1" parent="Pq3xIhJE7gmnOF6xwbTR-137">
          <mxGeometry y="108" width="160" height="26" as="geometry" />
        </mxCell>
        <mxCell id="Pq3xIhJE7gmnOF6xwbTR-145" value="FK" style="shape=partialRectangle;top=0;left=0;bottom=0;html=1;fillColor=none;align=left;verticalAlign=top;spacingLeft=4;spacingRight=4;whiteSpace=wrap;overflow=hidden;rotatable=0;points=[];portConstraint=eastwest;part=1;" vertex="1" connectable="0" parent="Pq3xIhJE7gmnOF6xwbTR-144">
          <mxGeometry width="30" height="26" as="geometry" />
        </mxCell>
        <mxCell id="Pq3xIhJE7gmnOF6xwbTR-152" value="收到驗收單時間戳" style="shape=partialRectangle;top=0;left=0;right=0;bottom=0;html=1;align=left;verticalAlign=top;fillColor=none;spacingLeft=34;spacingRight=4;whiteSpace=wrap;overflow=hidden;rotatable=0;points=[[0,0.5],[1,0.5]];portConstraint=eastwest;dropTarget=0;" vertex="1" parent="Pq3xIhJE7gmnOF6xwbTR-137">
          <mxGeometry y="134" width="160" height="26" as="geometry" />
        </mxCell>
        <mxCell id="Pq3xIhJE7gmnOF6xwbTR-153" value="" style="shape=partialRectangle;top=0;left=0;bottom=0;html=1;fillColor=none;align=left;verticalAlign=top;spacingLeft=4;spacingRight=4;whiteSpace=wrap;overflow=hidden;rotatable=0;points=[];portConstraint=eastwest;part=1;" vertex="1" connectable="0" parent="Pq3xIhJE7gmnOF6xwbTR-152">
          <mxGeometry width="30" height="26" as="geometry" />
        </mxCell>
        <mxCell id="Pq3xIhJE7gmnOF6xwbTR-146" value="驗收狀態" style="shape=partialRectangle;top=0;left=0;right=0;bottom=0;html=1;align=left;verticalAlign=top;fillColor=none;spacingLeft=34;spacingRight=4;whiteSpace=wrap;overflow=hidden;rotatable=0;points=[[0,0.5],[1,0.5]];portConstraint=eastwest;dropTarget=0;" vertex="1" parent="Pq3xIhJE7gmnOF6xwbTR-137">
          <mxGeometry y="160" width="160" height="26" as="geometry" />
        </mxCell>
        <mxCell id="Pq3xIhJE7gmnOF6xwbTR-147" value="" style="shape=partialRectangle;top=0;left=0;bottom=0;html=1;fillColor=none;align=left;verticalAlign=top;spacingLeft=4;spacingRight=4;whiteSpace=wrap;overflow=hidden;rotatable=0;points=[];portConstraint=eastwest;part=1;" vertex="1" connectable="0" parent="Pq3xIhJE7gmnOF6xwbTR-146">
          <mxGeometry width="30" height="26" as="geometry" />
        </mxCell>
        <mxCell id="Pq3xIhJE7gmnOF6xwbTR-150" value="狀態更新時間戳" style="shape=partialRectangle;top=0;left=0;right=0;bottom=0;html=1;align=left;verticalAlign=top;fillColor=none;spacingLeft=34;spacingRight=4;whiteSpace=wrap;overflow=hidden;rotatable=0;points=[[0,0.5],[1,0.5]];portConstraint=eastwest;dropTarget=0;" vertex="1" parent="Pq3xIhJE7gmnOF6xwbTR-137">
          <mxGeometry y="186" width="160" height="26" as="geometry" />
        </mxCell>
        <mxCell id="Pq3xIhJE7gmnOF6xwbTR-151" value="" style="shape=partialRectangle;top=0;left=0;bottom=0;html=1;fillColor=none;align=left;verticalAlign=top;spacingLeft=4;spacingRight=4;whiteSpace=wrap;overflow=hidden;rotatable=0;points=[];portConstraint=eastwest;part=1;" vertex="1" connectable="0" parent="Pq3xIhJE7gmnOF6xwbTR-150">
          <mxGeometry width="30" height="26" as="geometry" />
        </mxCell>
        <mxCell id="Pq3xIhJE7gmnOF6xwbTR-148" value="" style="shape=partialRectangle;top=0;left=0;right=0;bottom=0;html=1;align=left;verticalAlign=top;fillColor=none;spacingLeft=34;spacingRight=4;whiteSpace=wrap;overflow=hidden;rotatable=0;points=[[0,0.5],[1,0.5]];portConstraint=eastwest;dropTarget=0;" vertex="1" parent="Pq3xIhJE7gmnOF6xwbTR-137">
          <mxGeometry y="212" width="160" height="10" as="geometry" />
        </mxCell>
        <mxCell id="Pq3xIhJE7gmnOF6xwbTR-149" value="" style="shape=partialRectangle;top=0;left=0;bottom=0;html=1;fillColor=none;align=left;verticalAlign=top;spacingLeft=4;spacingRight=4;whiteSpace=wrap;overflow=hidden;rotatable=0;points=[];portConstraint=eastwest;part=1;" vertex="1" connectable="0" parent="Pq3xIhJE7gmnOF6xwbTR-148">
          <mxGeometry width="30" height="10" as="geometry" />
        </mxCell>
        <mxCell id="Pq3xIhJE7gmnOF6xwbTR-154" value="requests" style="swimlane;html=1;fontStyle=0;childLayout=stackLayout;horizontal=1;startSize=26;fillColor=#e0e0e0;horizontalStack=0;resizeParent=1;resizeLast=0;collapsible=1;marginBottom=0;swimlaneFillColor=#ffffff;align=center;rounded=0;shadow=0;comic=0;labelBackgroundColor=none;strokeWidth=1;fontFamily=Verdana;fontSize=14" vertex="1" parent="1">
          <mxGeometry x="560" y="160" width="160" height="456" as="geometry" />
        </mxCell>
        <mxCell id="Pq3xIhJE7gmnOF6xwbTR-155" value="工程部內申請單號" style="shape=partialRectangle;top=0;left=0;right=0;bottom=1;html=1;align=left;verticalAlign=middle;fillColor=none;spacingLeft=34;spacingRight=4;whiteSpace=wrap;overflow=hidden;rotatable=0;points=[[0,0.5],[1,0.5]];portConstraint=eastwest;dropTarget=0;fontStyle=5;" vertex="1" parent="Pq3xIhJE7gmnOF6xwbTR-154">
          <mxGeometry y="26" width="160" height="30" as="geometry" />
        </mxCell>
        <mxCell id="Pq3xIhJE7gmnOF6xwbTR-156" value="PK" style="shape=partialRectangle;top=0;left=0;bottom=0;html=1;fillColor=none;align=left;verticalAlign=middle;spacingLeft=4;spacingRight=4;whiteSpace=wrap;overflow=hidden;rotatable=0;points=[];portConstraint=eastwest;part=1;" vertex="1" connectable="0" parent="Pq3xIhJE7gmnOF6xwbTR-155">
          <mxGeometry width="30" height="30" as="geometry" />
        </mxCell>
        <mxCell id="Pq3xIhJE7gmnOF6xwbTR-157" value="申請人工號簡碼" style="shape=partialRectangle;top=0;left=0;right=0;bottom=0;html=1;align=left;verticalAlign=top;fillColor=none;spacingLeft=34;spacingRight=4;whiteSpace=wrap;overflow=hidden;rotatable=0;points=[[0,0.5],[1,0.5]];portConstraint=eastwest;dropTarget=0;" vertex="1" parent="Pq3xIhJE7gmnOF6xwbTR-154">
          <mxGeometry y="56" width="160" height="26" as="geometry" />
        </mxCell>
        <mxCell id="Pq3xIhJE7gmnOF6xwbTR-158" value="FK" style="shape=partialRectangle;top=0;left=0;bottom=0;html=1;fillColor=none;align=left;verticalAlign=top;spacingLeft=4;spacingRight=4;whiteSpace=wrap;overflow=hidden;rotatable=0;points=[];portConstraint=eastwest;part=1;" vertex="1" connectable="0" parent="Pq3xIhJE7gmnOF6xwbTR-157">
          <mxGeometry width="30" height="26" as="geometry" />
        </mxCell>
        <mxCell id="Pq3xIhJE7gmnOF6xwbTR-159" value="收貨地址碼" style="shape=partialRectangle;top=0;left=0;right=0;bottom=0;html=1;align=left;verticalAlign=top;fillColor=none;spacingLeft=34;spacingRight=4;whiteSpace=wrap;overflow=hidden;rotatable=0;points=[[0,0.5],[1,0.5]];portConstraint=eastwest;dropTarget=0;" vertex="1" parent="Pq3xIhJE7gmnOF6xwbTR-154">
          <mxGeometry y="82" width="160" height="26" as="geometry" />
        </mxCell>
        <mxCell id="Pq3xIhJE7gmnOF6xwbTR-160" value="FK" style="shape=partialRectangle;top=0;left=0;bottom=0;html=1;fillColor=none;align=left;verticalAlign=top;spacingLeft=4;spacingRight=4;whiteSpace=wrap;overflow=hidden;rotatable=0;points=[];portConstraint=eastwest;part=1;" vertex="1" connectable="0" parent="Pq3xIhJE7gmnOF6xwbTR-159">
          <mxGeometry width="30" height="26" as="geometry" />
        </mxCell>
        <mxCell id="Pq3xIhJE7gmnOF6xwbTR-161" value="物料表主鍵" style="shape=partialRectangle;top=0;left=0;right=0;bottom=0;html=1;align=left;verticalAlign=top;fillColor=none;spacingLeft=34;spacingRight=4;whiteSpace=wrap;overflow=hidden;rotatable=0;points=[[0,0.5],[1,0.5]];portConstraint=eastwest;dropTarget=0;" vertex="1" parent="Pq3xIhJE7gmnOF6xwbTR-154">
          <mxGeometry y="108" width="160" height="26" as="geometry" />
        </mxCell>
        <mxCell id="Pq3xIhJE7gmnOF6xwbTR-162" value="FK" style="shape=partialRectangle;top=0;left=0;bottom=0;html=1;fillColor=none;align=left;verticalAlign=top;spacingLeft=4;spacingRight=4;whiteSpace=wrap;overflow=hidden;rotatable=0;points=[];portConstraint=eastwest;part=1;" vertex="1" connectable="0" parent="Pq3xIhJE7gmnOF6xwbTR-161">
          <mxGeometry width="30" height="26" as="geometry" />
        </mxCell>
        <mxCell id="Pq3xIhJE7gmnOF6xwbTR-165" value="物料類別" style="shape=partialRectangle;top=0;left=0;right=0;bottom=0;html=1;align=left;verticalAlign=top;fillColor=none;spacingLeft=34;spacingRight=4;whiteSpace=wrap;overflow=hidden;rotatable=0;points=[[0,0.5],[1,0.5]];portConstraint=eastwest;dropTarget=0;" vertex="1" parent="Pq3xIhJE7gmnOF6xwbTR-154">
          <mxGeometry y="134" width="160" height="26" as="geometry" />
        </mxCell>
        <mxCell id="Pq3xIhJE7gmnOF6xwbTR-166" value="FK" style="shape=partialRectangle;top=0;left=0;bottom=0;html=1;fillColor=none;align=left;verticalAlign=top;spacingLeft=4;spacingRight=4;whiteSpace=wrap;overflow=hidden;rotatable=0;points=[];portConstraint=eastwest;part=1;" vertex="1" connectable="0" parent="Pq3xIhJE7gmnOF6xwbTR-165">
          <mxGeometry width="30" height="26" as="geometry" />
        </mxCell>
        <mxCell id="Pq3xIhJE7gmnOF6xwbTR-167" value="需求數量" style="shape=partialRectangle;top=0;left=0;right=0;bottom=0;html=1;align=left;verticalAlign=top;fillColor=none;spacingLeft=34;spacingRight=4;whiteSpace=wrap;overflow=hidden;rotatable=0;points=[[0,0.5],[1,0.5]];portConstraint=eastwest;dropTarget=0;" vertex="1" parent="Pq3xIhJE7gmnOF6xwbTR-154">
          <mxGeometry y="160" width="160" height="26" as="geometry" />
        </mxCell>
        <mxCell id="Pq3xIhJE7gmnOF6xwbTR-168" value="" style="shape=partialRectangle;top=0;left=0;bottom=0;html=1;fillColor=none;align=left;verticalAlign=top;spacingLeft=4;spacingRight=4;whiteSpace=wrap;overflow=hidden;rotatable=0;points=[];portConstraint=eastwest;part=1;" vertex="1" connectable="0" parent="Pq3xIhJE7gmnOF6xwbTR-167">
          <mxGeometry width="30" height="26" as="geometry" />
        </mxCell>
        <mxCell id="Pq3xIhJE7gmnOF6xwbTR-169" value="請購類型" style="shape=partialRectangle;top=0;left=0;right=0;bottom=0;html=1;align=left;verticalAlign=top;fillColor=none;spacingLeft=34;spacingRight=4;whiteSpace=wrap;overflow=hidden;rotatable=0;points=[[0,0.5],[1,0.5]];portConstraint=eastwest;dropTarget=0;" vertex="1" parent="Pq3xIhJE7gmnOF6xwbTR-154">
          <mxGeometry y="186" width="160" height="26" as="geometry" />
        </mxCell>
        <mxCell id="Pq3xIhJE7gmnOF6xwbTR-170" value="FK" style="shape=partialRectangle;top=0;left=0;bottom=0;html=1;fillColor=none;align=left;verticalAlign=top;spacingLeft=4;spacingRight=4;whiteSpace=wrap;overflow=hidden;rotatable=0;points=[];portConstraint=eastwest;part=1;" vertex="1" connectable="0" parent="Pq3xIhJE7gmnOF6xwbTR-169">
          <mxGeometry width="30" height="26" as="geometry" />
        </mxCell>
        <mxCell id="Pq3xIhJE7gmnOF6xwbTR-171" value="專案名稱" style="shape=partialRectangle;top=0;left=0;right=0;bottom=0;html=1;align=left;verticalAlign=top;fillColor=none;spacingLeft=34;spacingRight=4;whiteSpace=wrap;overflow=hidden;rotatable=0;points=[[0,0.5],[1,0.5]];portConstraint=eastwest;dropTarget=0;" vertex="1" parent="Pq3xIhJE7gmnOF6xwbTR-154">
          <mxGeometry y="212" width="160" height="26" as="geometry" />
        </mxCell>
        <mxCell id="Pq3xIhJE7gmnOF6xwbTR-172" value="FK" style="shape=partialRectangle;top=0;left=0;bottom=0;html=1;fillColor=none;align=left;verticalAlign=top;spacingLeft=4;spacingRight=4;whiteSpace=wrap;overflow=hidden;rotatable=0;points=[];portConstraint=eastwest;part=1;" vertex="1" connectable="0" parent="Pq3xIhJE7gmnOF6xwbTR-171">
          <mxGeometry width="30" height="26" as="geometry" />
        </mxCell>
        <mxCell id="Pq3xIhJE7gmnOF6xwbTR-173" value="用途說明" style="shape=partialRectangle;top=0;left=0;right=0;bottom=0;html=1;align=left;verticalAlign=top;fillColor=none;spacingLeft=34;spacingRight=4;whiteSpace=wrap;overflow=hidden;rotatable=0;points=[[0,0.5],[1,0.5]];portConstraint=eastwest;dropTarget=0;" vertex="1" parent="Pq3xIhJE7gmnOF6xwbTR-154">
          <mxGeometry y="238" width="160" height="26" as="geometry" />
        </mxCell>
        <mxCell id="Pq3xIhJE7gmnOF6xwbTR-174" value="" style="shape=partialRectangle;top=0;left=0;bottom=0;html=1;fillColor=none;align=left;verticalAlign=top;spacingLeft=4;spacingRight=4;whiteSpace=wrap;overflow=hidden;rotatable=0;points=[];portConstraint=eastwest;part=1;" vertex="1" connectable="0" parent="Pq3xIhJE7gmnOF6xwbTR-173">
          <mxGeometry width="30" height="26" as="geometry" />
        </mxCell>
        <mxCell id="Pq3xIhJE7gmnOF6xwbTR-175" value="備註" style="shape=partialRectangle;top=0;left=0;right=0;bottom=0;html=1;align=left;verticalAlign=top;fillColor=none;spacingLeft=34;spacingRight=4;whiteSpace=wrap;overflow=hidden;rotatable=0;points=[[0,0.5],[1,0.5]];portConstraint=eastwest;dropTarget=0;" vertex="1" parent="Pq3xIhJE7gmnOF6xwbTR-154">
          <mxGeometry y="264" width="160" height="26" as="geometry" />
        </mxCell>
        <mxCell id="Pq3xIhJE7gmnOF6xwbTR-176" value="" style="shape=partialRectangle;top=0;left=0;bottom=0;html=1;fillColor=none;align=left;verticalAlign=top;spacingLeft=4;spacingRight=4;whiteSpace=wrap;overflow=hidden;rotatable=0;points=[];portConstraint=eastwest;part=1;" vertex="1" connectable="0" parent="Pq3xIhJE7gmnOF6xwbTR-175">
          <mxGeometry width="30" height="26" as="geometry" />
        </mxCell>
        <mxCell id="Pq3xIhJE7gmnOF6xwbTR-177" value="需求到貨日期" style="shape=partialRectangle;top=0;left=0;right=0;bottom=0;html=1;align=left;verticalAlign=top;fillColor=none;spacingLeft=34;spacingRight=4;whiteSpace=wrap;overflow=hidden;rotatable=0;points=[[0,0.5],[1,0.5]];portConstraint=eastwest;dropTarget=0;" vertex="1" parent="Pq3xIhJE7gmnOF6xwbTR-154">
          <mxGeometry y="290" width="160" height="26" as="geometry" />
        </mxCell>
        <mxCell id="Pq3xIhJE7gmnOF6xwbTR-178" value="" style="shape=partialRectangle;top=0;left=0;bottom=0;html=1;fillColor=none;align=left;verticalAlign=top;spacingLeft=4;spacingRight=4;whiteSpace=wrap;overflow=hidden;rotatable=0;points=[];portConstraint=eastwest;part=1;" vertex="1" connectable="0" parent="Pq3xIhJE7gmnOF6xwbTR-177">
          <mxGeometry width="30" height="26" as="geometry" />
        </mxCell>
        <mxCell id="Pq3xIhJE7gmnOF6xwbTR-179" value="填單時間戳" style="shape=partialRectangle;top=0;left=0;right=0;bottom=0;html=1;align=left;verticalAlign=top;fillColor=none;spacingLeft=34;spacingRight=4;whiteSpace=wrap;overflow=hidden;rotatable=0;points=[[0,0.5],[1,0.5]];portConstraint=eastwest;dropTarget=0;" vertex="1" parent="Pq3xIhJE7gmnOF6xwbTR-154">
          <mxGeometry y="316" width="160" height="26" as="geometry" />
        </mxCell>
        <mxCell id="Pq3xIhJE7gmnOF6xwbTR-180" value="" style="shape=partialRectangle;top=0;left=0;bottom=0;html=1;fillColor=none;align=left;verticalAlign=top;spacingLeft=4;spacingRight=4;whiteSpace=wrap;overflow=hidden;rotatable=0;points=[];portConstraint=eastwest;part=1;" vertex="1" connectable="0" parent="Pq3xIhJE7gmnOF6xwbTR-179">
          <mxGeometry width="30" height="26" as="geometry" />
        </mxCell>
        <mxCell id="Pq3xIhJE7gmnOF6xwbTR-181" value="軟刪除時間戳" style="shape=partialRectangle;top=0;left=0;right=0;bottom=0;html=1;align=left;verticalAlign=top;fillColor=none;spacingLeft=34;spacingRight=4;whiteSpace=wrap;overflow=hidden;rotatable=0;points=[[0,0.5],[1,0.5]];portConstraint=eastwest;dropTarget=0;" vertex="1" parent="Pq3xIhJE7gmnOF6xwbTR-154">
          <mxGeometry y="342" width="160" height="26" as="geometry" />
        </mxCell>
        <mxCell id="Pq3xIhJE7gmnOF6xwbTR-182" value="" style="shape=partialRectangle;top=0;left=0;bottom=0;html=1;fillColor=none;align=left;verticalAlign=top;spacingLeft=4;spacingRight=4;whiteSpace=wrap;overflow=hidden;rotatable=0;points=[];portConstraint=eastwest;part=1;" vertex="1" connectable="0" parent="Pq3xIhJE7gmnOF6xwbTR-181">
          <mxGeometry width="30" height="26" as="geometry" />
        </mxCell>
        <mxCell id="Pq3xIhJE7gmnOF6xwbTR-183" value="最新狀態" style="shape=partialRectangle;top=0;left=0;right=0;bottom=0;html=1;align=left;verticalAlign=top;fillColor=none;spacingLeft=34;spacingRight=4;whiteSpace=wrap;overflow=hidden;rotatable=0;points=[[0,0.5],[1,0.5]];portConstraint=eastwest;dropTarget=0;" vertex="1" parent="Pq3xIhJE7gmnOF6xwbTR-154">
          <mxGeometry y="368" width="160" height="26" as="geometry" />
        </mxCell>
        <mxCell id="Pq3xIhJE7gmnOF6xwbTR-184" value="" style="shape=partialRectangle;top=0;left=0;bottom=0;html=1;fillColor=none;align=left;verticalAlign=top;spacingLeft=4;spacingRight=4;whiteSpace=wrap;overflow=hidden;rotatable=0;points=[];portConstraint=eastwest;part=1;" vertex="1" connectable="0" parent="Pq3xIhJE7gmnOF6xwbTR-183">
          <mxGeometry width="30" height="26" as="geometry" />
        </mxCell>
        <mxCell id="Pq3xIhJE7gmnOF6xwbTR-185" value="狀態更新時間戳" style="shape=partialRectangle;top=0;left=0;right=0;bottom=0;html=1;align=left;verticalAlign=top;fillColor=none;spacingLeft=34;spacingRight=4;whiteSpace=wrap;overflow=hidden;rotatable=0;points=[[0,0.5],[1,0.5]];portConstraint=eastwest;dropTarget=0;" vertex="1" parent="Pq3xIhJE7gmnOF6xwbTR-154">
          <mxGeometry y="394" width="160" height="26" as="geometry" />
        </mxCell>
        <mxCell id="Pq3xIhJE7gmnOF6xwbTR-186" value="" style="shape=partialRectangle;top=0;left=0;bottom=0;html=1;fillColor=none;align=left;verticalAlign=top;spacingLeft=4;spacingRight=4;whiteSpace=wrap;overflow=hidden;rotatable=0;points=[];portConstraint=eastwest;part=1;" vertex="1" connectable="0" parent="Pq3xIhJE7gmnOF6xwbTR-185">
          <mxGeometry width="30" height="26" as="geometry" />
        </mxCell>
        <mxCell id="Pq3xIhJE7gmnOF6xwbTR-187" value="資材部請購單號" style="shape=partialRectangle;top=0;left=0;right=0;bottom=0;html=1;align=left;verticalAlign=top;fillColor=none;spacingLeft=34;spacingRight=4;whiteSpace=wrap;overflow=hidden;rotatable=0;points=[[0,0.5],[1,0.5]];portConstraint=eastwest;dropTarget=0;" vertex="1" parent="Pq3xIhJE7gmnOF6xwbTR-154">
          <mxGeometry y="420" width="160" height="26" as="geometry" />
        </mxCell>
        <mxCell id="Pq3xIhJE7gmnOF6xwbTR-188" value="FK" style="shape=partialRectangle;top=0;left=0;bottom=0;html=1;fillColor=none;align=left;verticalAlign=top;spacingLeft=4;spacingRight=4;whiteSpace=wrap;overflow=hidden;rotatable=0;points=[];portConstraint=eastwest;part=1;" vertex="1" connectable="0" parent="Pq3xIhJE7gmnOF6xwbTR-187">
          <mxGeometry width="30" height="26" as="geometry" />
        </mxCell>
        <mxCell id="Pq3xIhJE7gmnOF6xwbTR-163" value="" style="shape=partialRectangle;top=0;left=0;right=0;bottom=0;html=1;align=left;verticalAlign=top;fillColor=none;spacingLeft=34;spacingRight=4;whiteSpace=wrap;overflow=hidden;rotatable=0;points=[[0,0.5],[1,0.5]];portConstraint=eastwest;dropTarget=0;" vertex="1" parent="Pq3xIhJE7gmnOF6xwbTR-154">
          <mxGeometry y="446" width="160" height="10" as="geometry" />
        </mxCell>
        <mxCell id="Pq3xIhJE7gmnOF6xwbTR-164" value="" style="shape=partialRectangle;top=0;left=0;bottom=0;html=1;fillColor=none;align=left;verticalAlign=top;spacingLeft=4;spacingRight=4;whiteSpace=wrap;overflow=hidden;rotatable=0;points=[];portConstraint=eastwest;part=1;" vertex="1" connectable="0" parent="Pq3xIhJE7gmnOF6xwbTR-163">
          <mxGeometry width="30" height="10" as="geometry" />
        </mxCell>
        <mxCell id="Pq3xIhJE7gmnOF6xwbTR-195" style="edgeStyle=orthogonalEdgeStyle;rounded=0;orthogonalLoop=1;jettySize=auto;html=1;" edge="1" parent="1" source="Pq3xIhJE7gmnOF6xwbTR-68" target="Pq3xIhJE7gmnOF6xwbTR-25">
          <mxGeometry relative="1" as="geometry">
            <Array as="points">
              <mxPoint x="540" y="321" />
              <mxPoint x="540" y="81" />
            </Array>
          </mxGeometry>
        </mxCell>
        <mxCell id="Pq3xIhJE7gmnOF6xwbTR-196" style="edgeStyle=orthogonalEdgeStyle;rounded=0;orthogonalLoop=1;jettySize=auto;html=1;" edge="1" parent="1" source="Pq3xIhJE7gmnOF6xwbTR-72" target="Pq3xIhJE7gmnOF6xwbTR-126">
          <mxGeometry relative="1" as="geometry" />
        </mxCell>
        <mxCell id="Pq3xIhJE7gmnOF6xwbTR-197" style="edgeStyle=orthogonalEdgeStyle;rounded=0;orthogonalLoop=1;jettySize=auto;html=1;" edge="1" parent="1" source="Pq3xIhJE7gmnOF6xwbTR-82" target="Pq3xIhJE7gmnOF6xwbTR-2">
          <mxGeometry relative="1" as="geometry" />
        </mxCell>
        <mxCell id="Pq3xIhJE7gmnOF6xwbTR-198" style="edgeStyle=orthogonalEdgeStyle;rounded=0;orthogonalLoop=1;jettySize=auto;html=1;" edge="1" parent="1" source="Pq3xIhJE7gmnOF6xwbTR-80" target="2e49270ec7c68f3f-81">
          <mxGeometry relative="1" as="geometry" />
        </mxCell>
        <mxCell id="Pq3xIhJE7gmnOF6xwbTR-200" style="edgeStyle=orthogonalEdgeStyle;rounded=0;orthogonalLoop=1;jettySize=auto;html=1;entryX=0;entryY=0.5;entryDx=0;entryDy=0;" edge="1" parent="1" source="Pq3xIhJE7gmnOF6xwbTR-78" target="Pq3xIhJE7gmnOF6xwbTR-51">
          <mxGeometry relative="1" as="geometry" />
        </mxCell>
        <mxCell id="Pq3xIhJE7gmnOF6xwbTR-201" style="edgeStyle=orthogonalEdgeStyle;rounded=0;orthogonalLoop=1;jettySize=auto;html=1;" edge="1" parent="1" source="Pq3xIhJE7gmnOF6xwbTR-159" target="Pq3xIhJE7gmnOF6xwbTR-51">
          <mxGeometry relative="1" as="geometry">
            <Array as="points">
              <mxPoint x="500" y="255" />
              <mxPoint x="500" y="81" />
            </Array>
          </mxGeometry>
        </mxCell>
        <mxCell id="Pq3xIhJE7gmnOF6xwbTR-202" style="edgeStyle=orthogonalEdgeStyle;rounded=0;orthogonalLoop=1;jettySize=auto;html=1;" edge="1" parent="1" source="Pq3xIhJE7gmnOF6xwbTR-161" target="Pq3xIhJE7gmnOF6xwbTR-62">
          <mxGeometry relative="1" as="geometry" />
        </mxCell>
        <mxCell id="Pq3xIhJE7gmnOF6xwbTR-203" style="edgeStyle=orthogonalEdgeStyle;rounded=0;orthogonalLoop=1;jettySize=auto;html=1;entryX=1;entryY=0.5;entryDx=0;entryDy=0;exitX=1;exitY=0.5;exitDx=0;exitDy=0;" edge="1" parent="1" source="Pq3xIhJE7gmnOF6xwbTR-165" target="Pq3xIhJE7gmnOF6xwbTR-25">
          <mxGeometry relative="1" as="geometry">
            <Array as="points">
              <mxPoint x="760" y="307" />
              <mxPoint x="760" y="81" />
            </Array>
          </mxGeometry>
        </mxCell>
        <mxCell id="Pq3xIhJE7gmnOF6xwbTR-204" style="edgeStyle=orthogonalEdgeStyle;rounded=0;orthogonalLoop=1;jettySize=auto;html=1;" edge="1" parent="1" source="Pq3xIhJE7gmnOF6xwbTR-169" target="Pq3xIhJE7gmnOF6xwbTR-113">
          <mxGeometry relative="1" as="geometry" />
        </mxCell>
        <mxCell id="Pq3xIhJE7gmnOF6xwbTR-205" style="edgeStyle=orthogonalEdgeStyle;rounded=0;orthogonalLoop=1;jettySize=auto;html=1;" edge="1" parent="1" source="Pq3xIhJE7gmnOF6xwbTR-171" target="Pq3xIhJE7gmnOF6xwbTR-36">
          <mxGeometry relative="1" as="geometry">
            <Array as="points">
              <mxPoint x="800" y="385" />
              <mxPoint x="800" y="201" />
            </Array>
          </mxGeometry>
        </mxCell>
        <mxCell id="Pq3xIhJE7gmnOF6xwbTR-206" style="edgeStyle=orthogonalEdgeStyle;rounded=0;orthogonalLoop=1;jettySize=auto;html=1;" edge="1" parent="1" source="Pq3xIhJE7gmnOF6xwbTR-187" target="Pq3xIhJE7gmnOF6xwbTR-102">
          <mxGeometry relative="1" as="geometry" />
        </mxCell>
        <mxCell id="Pq3xIhJE7gmnOF6xwbTR-207" style="edgeStyle=orthogonalEdgeStyle;rounded=0;orthogonalLoop=1;jettySize=auto;html=1;exitX=1;exitY=0.5;exitDx=0;exitDy=0;" edge="1" parent="1" source="Pq3xIhJE7gmnOF6xwbTR-142" target="Pq3xIhJE7gmnOF6xwbTR-51">
          <mxGeometry relative="1" as="geometry" />
        </mxCell>
        <mxCell id="Pq3xIhJE7gmnOF6xwbTR-208" style="edgeStyle=orthogonalEdgeStyle;rounded=0;orthogonalLoop=1;jettySize=auto;html=1;entryX=1;entryY=0.5;entryDx=0;entryDy=0;" edge="1" parent="1" source="Pq3xIhJE7gmnOF6xwbTR-144" target="Pq3xIhJE7gmnOF6xwbTR-155">
          <mxGeometry relative="1" as="geometry" />
        </mxCell>
        <mxCell id="Pq3xIhJE7gmnOF6xwbTR-209" value="employees" style="swimlane;html=1;fontStyle=0;childLayout=stackLayout;horizontal=1;startSize=26;fillColor=#e0e0e0;horizontalStack=0;resizeParent=1;resizeLast=0;collapsible=1;marginBottom=0;swimlaneFillColor=#ffffff;align=center;rounded=0;shadow=0;comic=0;labelBackgroundColor=none;strokeWidth=1;fontFamily=Verdana;fontSize=14" vertex="1" parent="1">
          <mxGeometry x="840" y="560" width="160" height="248" as="geometry" />
        </mxCell>
        <mxCell id="Pq3xIhJE7gmnOF6xwbTR-210" value="默認遞增主鍵" style="shape=partialRectangle;top=0;left=0;right=0;bottom=1;html=1;align=left;verticalAlign=middle;fillColor=none;spacingLeft=34;spacingRight=4;whiteSpace=wrap;overflow=hidden;rotatable=0;points=[[0,0.5],[1,0.5]];portConstraint=eastwest;dropTarget=0;fontStyle=5;" vertex="1" parent="Pq3xIhJE7gmnOF6xwbTR-209">
          <mxGeometry y="26" width="160" height="30" as="geometry" />
        </mxCell>
        <mxCell id="Pq3xIhJE7gmnOF6xwbTR-211" value="PK" style="shape=partialRectangle;top=0;left=0;bottom=0;html=1;fillColor=none;align=left;verticalAlign=middle;spacingLeft=4;spacingRight=4;whiteSpace=wrap;overflow=hidden;rotatable=0;points=[];portConstraint=eastwest;part=1;" vertex="1" connectable="0" parent="Pq3xIhJE7gmnOF6xwbTR-210">
          <mxGeometry width="30" height="30" as="geometry" />
        </mxCell>
        <mxCell id="Pq3xIhJE7gmnOF6xwbTR-212" value="工號簡碼" style="shape=partialRectangle;top=0;left=0;right=0;bottom=0;html=1;align=left;verticalAlign=top;fillColor=none;spacingLeft=34;spacingRight=4;whiteSpace=wrap;overflow=hidden;rotatable=0;points=[[0,0.5],[1,0.5]];portConstraint=eastwest;dropTarget=0;" vertex="1" parent="Pq3xIhJE7gmnOF6xwbTR-209">
          <mxGeometry y="56" width="160" height="26" as="geometry" />
        </mxCell>
        <mxCell id="Pq3xIhJE7gmnOF6xwbTR-213" value="" style="shape=partialRectangle;top=0;left=0;bottom=0;html=1;fillColor=none;align=left;verticalAlign=top;spacingLeft=4;spacingRight=4;whiteSpace=wrap;overflow=hidden;rotatable=0;points=[];portConstraint=eastwest;part=1;" vertex="1" connectable="0" parent="Pq3xIhJE7gmnOF6xwbTR-212">
          <mxGeometry width="30" height="26" as="geometry" />
        </mxCell>
        <mxCell id="Pq3xIhJE7gmnOF6xwbTR-222" value="工號全碼" style="shape=partialRectangle;top=0;left=0;right=0;bottom=0;html=1;align=left;verticalAlign=top;fillColor=none;spacingLeft=34;spacingRight=4;whiteSpace=wrap;overflow=hidden;rotatable=0;points=[[0,0.5],[1,0.5]];portConstraint=eastwest;dropTarget=0;" vertex="1" parent="Pq3xIhJE7gmnOF6xwbTR-209">
          <mxGeometry y="82" width="160" height="26" as="geometry" />
        </mxCell>
        <mxCell id="Pq3xIhJE7gmnOF6xwbTR-223" value="" style="shape=partialRectangle;top=0;left=0;bottom=0;html=1;fillColor=none;align=left;verticalAlign=top;spacingLeft=4;spacingRight=4;whiteSpace=wrap;overflow=hidden;rotatable=0;points=[];portConstraint=eastwest;part=1;" vertex="1" connectable="0" parent="Pq3xIhJE7gmnOF6xwbTR-222">
          <mxGeometry width="30" height="26" as="geometry" />
        </mxCell>
        <mxCell id="Pq3xIhJE7gmnOF6xwbTR-214" value="姓名" style="shape=partialRectangle;top=0;left=0;right=0;bottom=0;html=1;align=left;verticalAlign=top;fillColor=none;spacingLeft=34;spacingRight=4;whiteSpace=wrap;overflow=hidden;rotatable=0;points=[[0,0.5],[1,0.5]];portConstraint=eastwest;dropTarget=0;" vertex="1" parent="Pq3xIhJE7gmnOF6xwbTR-209">
          <mxGeometry y="108" width="160" height="26" as="geometry" />
        </mxCell>
        <mxCell id="Pq3xIhJE7gmnOF6xwbTR-215" value="" style="shape=partialRectangle;top=0;left=0;bottom=0;html=1;fillColor=none;align=left;verticalAlign=top;spacingLeft=4;spacingRight=4;whiteSpace=wrap;overflow=hidden;rotatable=0;points=[];portConstraint=eastwest;part=1;" vertex="1" connectable="0" parent="Pq3xIhJE7gmnOF6xwbTR-214">
          <mxGeometry width="30" height="26" as="geometry" />
        </mxCell>
        <mxCell id="Pq3xIhJE7gmnOF6xwbTR-216" value="公司信箱" style="shape=partialRectangle;top=0;left=0;right=0;bottom=0;html=1;align=left;verticalAlign=top;fillColor=none;spacingLeft=34;spacingRight=4;whiteSpace=wrap;overflow=hidden;rotatable=0;points=[[0,0.5],[1,0.5]];portConstraint=eastwest;dropTarget=0;" vertex="1" parent="Pq3xIhJE7gmnOF6xwbTR-209">
          <mxGeometry y="134" width="160" height="26" as="geometry" />
        </mxCell>
        <mxCell id="Pq3xIhJE7gmnOF6xwbTR-217" value="" style="shape=partialRectangle;top=0;left=0;bottom=0;html=1;fillColor=none;align=left;verticalAlign=top;spacingLeft=4;spacingRight=4;whiteSpace=wrap;overflow=hidden;rotatable=0;points=[];portConstraint=eastwest;part=1;" vertex="1" connectable="0" parent="Pq3xIhJE7gmnOF6xwbTR-216">
          <mxGeometry width="30" height="26" as="geometry" />
        </mxCell>
        <mxCell id="Pq3xIhJE7gmnOF6xwbTR-224" value="員工卡號" style="shape=partialRectangle;top=0;left=0;right=0;bottom=0;html=1;align=left;verticalAlign=top;fillColor=none;spacingLeft=34;spacingRight=4;whiteSpace=wrap;overflow=hidden;rotatable=0;points=[[0,0.5],[1,0.5]];portConstraint=eastwest;dropTarget=0;" vertex="1" parent="Pq3xIhJE7gmnOF6xwbTR-209">
          <mxGeometry y="160" width="160" height="26" as="geometry" />
        </mxCell>
        <mxCell id="Pq3xIhJE7gmnOF6xwbTR-225" value="" style="shape=partialRectangle;top=0;left=0;bottom=0;html=1;fillColor=none;align=left;verticalAlign=top;spacingLeft=4;spacingRight=4;whiteSpace=wrap;overflow=hidden;rotatable=0;points=[];portConstraint=eastwest;part=1;" vertex="1" connectable="0" parent="Pq3xIhJE7gmnOF6xwbTR-224">
          <mxGeometry width="30" height="26" as="geometry" />
        </mxCell>
        <mxCell id="Pq3xIhJE7gmnOF6xwbTR-218" value="建檔時間戳" style="shape=partialRectangle;top=0;left=0;right=0;bottom=0;html=1;align=left;verticalAlign=top;fillColor=none;spacingLeft=34;spacingRight=4;whiteSpace=wrap;overflow=hidden;rotatable=0;points=[[0,0.5],[1,0.5]];portConstraint=eastwest;dropTarget=0;" vertex="1" parent="Pq3xIhJE7gmnOF6xwbTR-209">
          <mxGeometry y="186" width="160" height="26" as="geometry" />
        </mxCell>
        <mxCell id="Pq3xIhJE7gmnOF6xwbTR-219" value="" style="shape=partialRectangle;top=0;left=0;bottom=0;html=1;fillColor=none;align=left;verticalAlign=top;spacingLeft=4;spacingRight=4;whiteSpace=wrap;overflow=hidden;rotatable=0;points=[];portConstraint=eastwest;part=1;" vertex="1" connectable="0" parent="Pq3xIhJE7gmnOF6xwbTR-218">
          <mxGeometry width="30" height="26" as="geometry" />
        </mxCell>
        <mxCell id="Pq3xIhJE7gmnOF6xwbTR-228" value="軟刪除時間戳" style="shape=partialRectangle;top=0;left=0;right=0;bottom=0;html=1;align=left;verticalAlign=top;fillColor=none;spacingLeft=34;spacingRight=4;whiteSpace=wrap;overflow=hidden;rotatable=0;points=[[0,0.5],[1,0.5]];portConstraint=eastwest;dropTarget=0;" vertex="1" parent="Pq3xIhJE7gmnOF6xwbTR-209">
          <mxGeometry y="212" width="160" height="26" as="geometry" />
        </mxCell>
        <mxCell id="Pq3xIhJE7gmnOF6xwbTR-229" value="" style="shape=partialRectangle;top=0;left=0;bottom=0;html=1;fillColor=none;align=left;verticalAlign=top;spacingLeft=4;spacingRight=4;whiteSpace=wrap;overflow=hidden;rotatable=0;points=[];portConstraint=eastwest;part=1;" vertex="1" connectable="0" parent="Pq3xIhJE7gmnOF6xwbTR-228">
          <mxGeometry width="30" height="26" as="geometry" />
        </mxCell>
        <mxCell id="Pq3xIhJE7gmnOF6xwbTR-220" value="" style="shape=partialRectangle;top=0;left=0;right=0;bottom=0;html=1;align=left;verticalAlign=top;fillColor=none;spacingLeft=34;spacingRight=4;whiteSpace=wrap;overflow=hidden;rotatable=0;points=[[0,0.5],[1,0.5]];portConstraint=eastwest;dropTarget=0;" vertex="1" parent="Pq3xIhJE7gmnOF6xwbTR-209">
          <mxGeometry y="238" width="160" height="10" as="geometry" />
        </mxCell>
        <mxCell id="Pq3xIhJE7gmnOF6xwbTR-221" value="" style="shape=partialRectangle;top=0;left=0;bottom=0;html=1;fillColor=none;align=left;verticalAlign=top;spacingLeft=4;spacingRight=4;whiteSpace=wrap;overflow=hidden;rotatable=0;points=[];portConstraint=eastwest;part=1;" vertex="1" connectable="0" parent="Pq3xIhJE7gmnOF6xwbTR-220">
          <mxGeometry width="30" height="10" as="geometry" />
        </mxCell>
        <mxCell id="Pq3xIhJE7gmnOF6xwbTR-232" style="edgeStyle=orthogonalEdgeStyle;rounded=0;orthogonalLoop=1;jettySize=auto;html=1;" edge="1" parent="1" source="Pq3xIhJE7gmnOF6xwbTR-157" target="Pq3xIhJE7gmnOF6xwbTR-212">
          <mxGeometry relative="1" as="geometry">
            <Array as="points">
              <mxPoint x="820" y="229" />
              <mxPoint x="820" y="629" />
            </Array>
          </mxGeometry>
        </mxCell>
      </root>
    </mxGraphModel>
  </diagram>
</mxfile>
